# Blender v2.79 (sub 0) OBJ File: 'blocuri.blend'
# www.blender.org
mtllib blocuri.mtl
v 6.868404 0.024945 -0.336141
v 6.868404 0.024945 1.663859
v 4.868404 0.024945 1.663859
v 4.868404 0.024945 -0.336141
v 6.868404 12.359458 -0.336140
v 6.868403 12.359458 1.663860
v 4.868403 12.359458 1.663859
v 4.868404 12.359458 -0.336141
vn 0.0000 -1.0000 0.0000
vn 0.0000 1.0000 -0.0000
vn 1.0000 -0.0000 0.0000
vn 0.0000 -0.0000 1.0000
vn -1.0000 0.0000 -0.0000
vn 0.0000 0.0000 -1.0000
usemtl Material
s off
f 2//1 4//1 1//1
f 8//2 6//2 5//2
f 5//3 2//3 1//3
f 6//4 3//4 2//4
f 7//5 4//5 3//5
f 1//6 8//6 5//6
f 2//1 3//1 4//1
f 8//2 7//2 6//2
f 5//3 6//3 2//3
f 6//4 7//4 3//4
f 7//5 8//5 4//5
f 1//6 4//6 8//6
v 3.461719 0.083911 -5.833525
v 3.461719 0.083911 -3.833525
v 1.461718 0.083911 -3.833525
v 1.461719 0.083911 -5.833525
v 3.461719 19.697142 -5.833524
v 3.461718 19.697142 -3.833524
v 1.461718 19.697142 -3.833525
v 1.461719 19.697142 -5.833525
vn 0.0000 -1.0000 -0.0000
vn 0.0000 1.0000 -0.0000
vn 1.0000 -0.0000 0.0000
vn 0.0000 -0.0000 1.0000
vn -1.0000 -0.0000 -0.0000
vn 0.0000 0.0000 -1.0000
usemtl Material
s off
f 9//7 11//7 12//7
f 16//8 14//8 13//8
f 13//9 10//9 9//9
f 14//10 11//10 10//10
f 15//11 12//11 11//11
f 9//12 16//12 13//12
f 9//7 10//7 11//7
f 16//8 15//8 14//8
f 13//9 14//9 10//9
f 14//10 15//10 11//10
f 15//11 16//11 12//11
f 9//12 12//12 16//12
v -0.091603 0.027962 -3.049075
v -0.091603 0.027962 -1.049075
v -2.091603 0.027962 -1.049075
v -2.091602 0.027962 -3.049075
v -0.091602 15.748028 -3.049074
v -0.091603 15.748028 -1.049074
v -2.091603 15.748028 -1.049075
v -2.091603 15.748028 -3.049075
vn 0.0000 -1.0000 0.0000
vn 0.0000 1.0000 0.0000
vn 1.0000 -0.0000 0.0000
vn 0.0000 -0.0000 1.0000
vn -1.0000 -0.0000 -0.0000
vn 0.0000 0.0000 -1.0000
usemtl Material
s off
f 18//13 20//13 17//13
f 24//14 22//14 21//14
f 21//15 18//15 17//15
f 22//16 19//16 18//16
f 23//17 20//17 19//17
f 17//18 24//18 21//18
f 18//13 19//13 20//13
f 24//14 23//14 22//14
f 21//15 22//15 18//15
f 22//16 23//16 19//16
f 23//17 24//17 20//17
f 17//18 20//18 24//18
v -3.992908 0.077612 -0.903410
v -3.992908 0.077612 1.096590
v -5.992908 0.077612 1.096590
v -5.992908 0.077612 -0.903410
v -3.992908 16.837099 -0.903409
v -3.992909 16.837099 1.096591
v -5.992908 16.837099 1.096590
v -5.992908 16.837099 -0.903410
vn 0.0000 -1.0000 0.0000
vn 0.0000 1.0000 -0.0000
vn 1.0000 -0.0000 0.0000
vn 0.0000 -0.0000 1.0000
vn -1.0000 -0.0000 -0.0000
vn 0.0000 0.0000 -1.0000
usemtl Material
s off
f 26//19 28//19 25//19
f 32//20 30//20 29//20
f 29//21 26//21 25//21
f 30//22 27//22 26//22
f 31//23 28//23 27//23
f 25//24 32//24 29//24
f 26//19 27//19 28//19
f 32//20 31//20 30//20
f 29//21 30//21 26//21
f 30//22 31//22 27//22
f 31//23 32//23 28//23
f 25//24 28//24 32//24
v 2.130733 0.010454 2.729252
v 2.130733 0.010454 6.609334
v -2.130733 0.010454 6.609334
v -2.130732 0.010454 2.729251
v 2.130733 3.009429 2.729253
v 2.130731 3.009429 6.609335
v -2.130733 3.009429 6.609334
v -2.130732 3.009429 2.729252
v -1.856871 3.009429 6.359980
v -1.856869 3.009429 2.978605
v 1.856869 3.009429 2.978607
v 1.856869 3.009429 6.359981
v -1.856871 5.714654 6.359980
v -1.856869 5.714654 2.978605
v 1.856869 5.714654 2.978607
v 1.856869 5.714654 6.359981
v -1.611177 5.714654 6.136275
v -1.611175 5.714654 3.202310
v 1.611176 5.714654 3.202311
v 1.611175 5.714654 6.136276
v -1.611177 10.079522 6.136275
v -1.611175 10.079522 3.202310
v 1.611176 10.079522 3.202311
v 1.611175 10.079522 6.136276
v -1.611177 10.079522 6.136275
v -1.611175 10.079522 3.202310
v 1.611176 10.079522 3.202311
v 1.611175 10.079522 6.136276
v -1.309835 10.079522 5.861903
v -1.309834 10.079522 3.476683
v 1.309834 10.079522 3.476684
v 1.309833 10.079522 5.861903
v -1.309835 17.254522 5.861903
v -1.309834 17.254522 3.476683
v 1.309834 17.254522 3.476684
v 1.309833 17.254522 5.861903
vn 0.0000 -1.0000 0.0000
vn 1.0000 -0.0000 0.0000
vn 0.0000 -0.0000 1.0000
vn -1.0000 -0.0000 -0.0000
vn 0.0000 0.0000 -1.0000
vn 0.0000 1.0000 0.0000
usemtl Material
s off
f 34//25 36//25 33//25
f 39//25 42//25 43//25
f 37//26 34//26 33//26
f 38//27 35//27 34//27
f 35//28 40//28 36//28
f 33//29 40//29 37//29
f 42//29 47//29 43//29
f 38//25 41//25 42//25
f 40//25 43//25 44//25
f 37//25 44//25 41//25
f 47//30 52//30 48//30
f 41//28 46//28 42//28
f 43//26 48//26 44//26
f 44//27 45//27 41//27
f 50//29 55//29 51//29
f 48//30 49//30 45//30
f 46//30 51//30 47//30
f 45//30 50//30 46//30
f 54//27 57//27 58//27
f 49//28 54//28 50//28
f 51//26 56//26 52//26
f 52//27 53//27 49//27
f 59//30 64//30 60//30
f 56//27 59//27 60//27
f 53//27 60//27 57//27
f 55//27 58//27 59//27
f 62//29 67//29 63//29
f 60//30 61//30 57//30
f 59//30 62//30 63//30
f 57//30 62//30 58//30
f 68//30 66//30 65//30
f 61//28 66//28 62//28
f 63//26 68//26 64//26
f 64//27 65//27 61//27
f 34//25 35//25 36//25
f 39//30 38//30 42//30
f 37//26 38//26 34//26
f 38//27 39//27 35//27
f 35//28 39//28 40//28
f 33//29 36//29 40//29
f 42//29 46//29 47//29
f 38//30 37//30 41//30
f 40//30 39//30 43//30
f 37//30 40//30 44//30
f 47//30 51//30 52//30
f 41//28 45//28 46//28
f 43//26 47//26 48//26
f 44//27 48//27 45//27
f 50//29 54//29 55//29
f 48//30 52//30 49//30
f 46//30 50//30 51//30
f 45//30 49//30 50//30
f 54//27 53//27 57//27
f 49//28 53//28 54//28
f 51//26 55//26 56//26
f 52//27 56//27 53//27
f 59//30 63//30 64//30
f 56//27 55//27 59//27
f 53//27 56//27 60//27
f 55//27 54//27 58//27
f 62//29 66//29 67//29
f 60//30 64//30 61//30
f 59//30 58//30 62//30
f 57//30 61//30 62//30
f 68//30 67//30 66//30
f 61//28 65//28 66//28
f 63//26 67//26 68//26
f 64//27 68//27 65//27
